# xmcd
#
# Track frame offsets:
#	150
#	10544
#	20809
#	35873
#	52522
#	64826
#	79009
#	91834
#	106721
#	119281
#
# Disc length: 1793 seconds
#
# Revision: 0
# Processed by: cddbd v1.5PL3 Copyright (c) Steve Scherf et al.
# Submitted via: dBpowerAMP V4.0
#
DISCID=6d06ff0a
DTITLE=Johnny Rebel - It's The Attitude Stupid
DYEAR=2002
DGENRE=Country
TTITLE0=It's The Attitude Stupid
TTITLE1=Niggers Suck!
TTITLE2=Affirmative Action
TTITLE3=Reparations
TTITLE4=Nothin' But Niggers
TTITLE5=If I Could Be a Nigger For A Day...
TTITLE6=Jesse Showed Up
TTITLE7=Send 'Em All Back To Africa
TTITLE8=Quit Your Bitchin' Nigger!
TTITLE9=Nigger In-Law
EXTD=Newest and probably will be the last Johnny Rebel cd/songs. \nIn the works for about 2 years, this was finally done and released\nin 2003. Only a handfull were originally sold, less than 10 due to the \nnew manager at that time leaving the scene ri
EXTD=pping off many people. \nIt is estimated there are probably less than 10 people with real, original copies.
EXTT0=
EXTT1=
EXTT2=
EXTT3=
EXTT4=
EXTT5=
EXTT6=
EXTT7=
EXTT8=
EXTT9=
PLAYORDER=
